<?xml version="1.0" encoding="utf-8"?>
<!-- Generator: Adobe Illustrator 27.8.0, SVG Export Plug-In . SVG Version: 6.00 Build 0)  -->
<svg version="1.1" id="Layer_1" xmlns="http://www.w3.org/2000/svg" xmlns:xlink="http://www.w3.org/1999/xlink" x="0px" y="0px"
	 viewBox="0 0 512 512" style="enable-background:new 0 0 512 512;" xml:space="preserve">
<style type="text/css">
	.st0{fill:#1564A7;}
	.st1{fill:#318CD7;}
	.st2{fill:#040027;}
	.st3{fill:#60BFFD;}
	.st4{fill:#83DBFB;}
	.st5{fill:#FFFFFF;stroke:#000000;stroke-width:4;stroke-miterlimit:10;}
	.st6{fill:#60BFFD;stroke:#000000;stroke-width:4;stroke-miterlimit:10;}
	.st7{fill:#60BFFF;stroke:#000000;stroke-width:4;stroke-miterlimit:10;}
	.st8{fill:#389CED;}
</style>
<path class="st0" d="M39.7,403.1c0.3-1.1,1.1-1.8,1.8-2.7c3.2-3.9,5.4-6.9,6-12c0,0.8-0.2,2,0.2,2.7c2,0.6,4.2,1.5,6.3,1.8
	c1.7,0.5,4.1,1.6,5.3,2.9C54.5,400.5,46.1,401.5,39.7,403.1z"/>
<path class="st1" d="M448.3,179.9c1.1-2.2,3-4.3,5-5.7c7.2-5.1,15.7-3.7,23.8-2.3l11.9,2l-0.4,0.2c-2.8,1.2-5.9,1.8-8.8,2.8
	c-5.2,1.7-8.5,6.3-10.5,11.2c-0.5,1.3-1,2.7-1.3,4c-1.4-0.3-2.8-0.5-4.3-0.7c-0.3-0.2-0.3-0.3-0.7-0.5c-1-0.4-3.1-0.5-4.2-0.7
	c-4.5-0.8-8.9-2-13.4-2.7C446.2,184.9,447.3,182.4,448.3,179.9z"/>
<path class="st1" d="M181.6,137.1c0.7-3.6,2.2-7.4,5.3-9.5c3.3-2.3,14.8-4.2,18.8-4.1c3.2,0.1,6.6,1.1,9.8,1.7
	c4.5,1,8.7,2.1,11.4,6.3c1.3,2,1.9,4.3,2.3,6.6c-2.4,1.3-6.6,1.5-9.4,1.9c-3.6,0.5-10.1,2.1-13.4,2.1c-2.4,0-4.9-0.7-7.3-1.2
	C193.2,139.9,187.4,138.7,181.6,137.1z"/>
<path class="st2" d="M230.9,61.6c3.9-0.2,21.2-0.1,24,1.7c1.3,0.9,1.9,2.6,2.1,4.1c0.2,1.2,0.1,2.6-0.4,3.8
	c-1.5,3.3-4.8,6.2-7.2,8.8c-3.8,4.2-8,8.5-11.4,13.1c4.2-0.1,8.9-0.5,12.8,1.3c0.5,0.7,1,1.6,1.3,2.5c0.5,1.5,0.4,3.4-0.4,4.8
	c-0.8,1.4-2,2.1-3.5,2.5c-4.1,0.1-18.3-0.2-22-1.1c-1.3-0.3-2.2-0.9-3.2-1.6c-0.6-1.3-1.1-2.6-1.2-4.1c-0.1-1.3,0.3-2.6,0.9-3.7
	c1.6-2.8,4.3-5.2,6.4-7.6c4-4.4,8.1-8.8,12-13.3c-3.6-0.4-7.7,0.6-11.1-0.7c-1.3-0.5-2.3-1.3-2.8-2.6c-0.6-1.5-0.3-3.6,0.4-5
	C228.3,62.8,229.4,62.1,230.9,61.6z"/>
<path class="st2" d="M366.1,20.8c4.6-0.2,9.2,0.2,13.8,0.4c3.5,0.1,7.3-0.2,10.7,0.4c1.4,0.3,2.8,0.8,3.9,1.8c1.7,1.6,2.2,4,2.2,6.3
	c0,1.5-0.6,2.8-1.4,4c-1.8,2.8-4.4,5-6.5,7.5c-5.1,5.9-10.1,12.2-15.5,17.8c3.9,0,11-0.4,14.6,0.8c1.6,0.6,2.9,1.6,3.6,3.2
	c0.7,1.7,0.8,3.8,0,5.5c-1,2.1-2.8,3.2-4.9,3.9c-4.2,0.2-8.6-0.2-12.9-0.3c-4.5-0.1-9.6,0.2-14-0.7c-1.1-0.2-2.2-0.7-3.1-1.4
	c-1.4-1.2-2.2-2.9-2.4-4.7c-0.2-1.7,0.2-3.3,0.9-4.8c2-3.8,5.8-7.3,8.6-10.5c4.8-5.4,9.6-10.8,14.3-16.3c-3.7,0.1-11.2,0.9-14.5-1
	c-1.3-0.8-2.2-2.1-2.6-3.6c-0.5-1.9-0.2-4,0.9-5.6C362.9,21.9,364.2,21.3,366.1,20.8z"/>
<path class="st2" d="M317.2,8.4c4.6-0.2,9.2,0.2,13.8,0.3c4,0.1,8.4-0.1,12.3,0.7c1.4,0.3,3,0.7,4,1.7c1.5,1.5,2.1,3.8,2.1,5.9
	c0,1.4-0.3,2.7-1,3.9c-2.7,4.6-8.8,10.7-12.5,14.9c-3.6,4.2-7.1,8.6-11,12.5c4-0.1,13.8-0.5,16.8,1.7c1.2,0.9,2,2.2,2.2,3.7
	c0.2,1.9-0.3,4.7-1.6,6.2c-1.1,1.4-2.8,2-4.5,2.2c-4.9,0-9.9-0.3-14.8-0.4c-3.6-0.1-8.4,0.4-11.8-0.3c-1.3-0.3-2.6-0.9-3.7-1.8
	c-1.6-1.4-2.6-3.4-2.7-5.5c-0.1-1.5,0.3-3.1,1-4.5c1.8-3.2,5.1-6.2,7.5-9c5.5-6.2,11-12.4,16.6-18.5c-3.7,0-12.2,0.6-15.1-1.1
	c-1.6-0.9-2.6-2.4-3.1-4.1c-0.5-1.9-0.2-4.1,0.9-5.7C313.8,9.5,315.3,8.7,317.2,8.4z"/>
<path class="st2" d="M150.9,2.4c5-0.1,10,0.3,15,0.5c3.5,0.1,7.2-0.1,10.7,0.5c1.3,0.2,2.4,0.7,3.5,1.5c1.7,1.4,2.6,3.7,2.7,5.9
	c0.1,1.7-0.2,3.8-1.1,5.3c-2.1,3.5-5.6,6.7-8.4,9.8l-16.1,18.2c4.3,0,13.8-0.9,17.3,1.5c1.5,1,2.3,2.6,2.5,4.4
	c0.3,2-0.1,4.1-1.4,5.7c-1.5,1.9-3.6,2.5-5.9,2.6c-5.6-0.1-11.2-0.4-16.8-0.6c-3.1-0.1-6.7,0.1-9.7-0.5c-1.3-0.2-2.6-0.8-3.6-1.7
	c-1.7-1.4-2.8-3.4-3-5.6c-0.1-1.9,0.4-3.7,1.3-5.3c1.7-2.9,4.4-5.4,6.7-7.9c4-4.5,7.9-8.9,12-13.4c2.1-2.3,4.3-4.5,6.3-6.9
	c-4.7-0.2-13.4,1.1-17-1.9c-1.3-1.1-2.1-2.7-2.2-4.4c-0.2-2.1,0.4-4.4,1.7-5.9C146.7,2.6,148.8,2.5,150.9,2.4z"/>
<path class="st1" d="M39.7,403.1c-1,0.2-2.1,0.4-3.1,0.3c-3.6-0.5-12.5-3.8-15.4-5.9c-3.4-2.4-5.3-6.4-6-10.5
	c-0.7-4.2-0.7-22.9,0-27c0.3-1.8,0.9-3.5,2.1-5c2.2-3,5.5-4,9-4.4c3.4,2,7.9,3,11.6,4.6c0.9-0.8,1.4-1.1,2.7-1.2
	c3.8,0.3,6.1,1.8,9,4c2.7,3.6,4.4,7.2,4.9,11.6l0,5.3c-1.7,0.2-4.9,1.5-6.4,0.5c-0.3-0.2-0.3-1-0.4-1.4l0,14.4
	c-0.6,5.1-2.8,8.1-6,12C40.8,401.3,40,402,39.7,403.1z"/>
<path class="st2" d="M40.4,354c3.8,0.3,6.1,1.8,9,4c2.7,3.6,4.4,7.2,4.9,11.6l0,5.3c-1.7,0.2-4.9,1.5-6.4,0.5
	c-0.3-0.2-0.3-1-0.4-1.4c0-0.3,0-0.5,0-0.8c0-5.4-1.7-11-5.8-14.8c-1.1-1.1-2.7-1.8-3.7-2.9c-0.1-0.1-0.2-0.2-0.3-0.3
	C38.7,354.3,39.2,354,40.4,354z"/>
<path class="st2" d="M28.6,368.7c0.7-0.1,1.5,0,2.2,0.2c2.4,0.8,4.4,2.9,5.5,5.2c1.2,2.5,1.8,5.8,0.8,8.5c-0.7,1.7-1.8,2.8-3.5,3.5
	c-0.8,0-1.6,0.1-2.4-0.1c-2.2-0.5-4.1-2.6-5.1-4.5c-1.3-2.5-2.1-5.8-1.2-8.6C25.5,370.8,26.7,369.7,28.6,368.7z"/>
<path class="st2" d="M403.2,73.1c5.3-0.2,10.7,0.2,16,0.3c4,0.1,8.5-0.2,12.4,0.6c1.5,0.3,2.8,0.8,4,1.9c1.7,1.6,2.6,3.9,2.6,6.2
	c0,1.6-0.3,3.3-1.1,4.7c-2.4,4.1-6.6,7.9-9.7,11.5c-5.5,6.3-10.9,12.9-16.7,19c3.8,0,15.5-0.5,18.6,1.2c1.7,0.9,2.8,2.6,3.3,4.4
	c0.5,2.1,0.2,4.3-1.1,6c-1.3,1.9-3.1,2.9-5.4,3.3c-5.6,0.5-11.6-0.3-17.2-0.6c-4-0.2-8.3,0-12.2-0.6c-1.4-0.2-2.8-0.6-3.9-1.4
	c-1.9-1.3-3-3.5-3.3-5.8c-0.3-1.9-0.1-4,0.8-5.7c1.5-2.7,4.1-5,6.1-7.3l12.8-14.4c2.5-2.7,5.4-5.4,7.5-8.4l0.2-0.3
	c-2.1,0.1-4.2,0-6.2,0c-2.4,0-4.8,0.3-7.2-0.1c-1.2-0.2-2.4-0.6-3.4-1.3c-1.6-1.1-2.6-2.9-2.9-4.9c-0.3-1.9,0.1-4,1.3-5.6
	C399.6,74.2,401.1,73.4,403.2,73.1z"/>
<path class="st1" d="M26.9,195.7c-0.3-1.1-2.5-1.4-3.5-1.9c-2.6-1.1-5.1-3.8-6.6-6.2c-1-1.6-1.5-3.6-1.8-5.5
	c-0.7-5-0.8-22.8,0.3-27.2c0.9-3.3,2.7-6,5.7-7.7c1.1-0.6,2.2-0.9,3.4-1.2c2.5-0.5,5.2-0.6,7.8-1c4.5-0.6,9.2-1.7,13.7-1.7
	c2,0,4,0.4,6,0.9c5.5,1.6,10.1,4.8,12.9,9.8c0.8,2.2,1.6,4.4,2.2,6.7c-4.1,0.9-9.1,1.1-12.8,2.8l-0.1,0.2c0,5,0.1,10,0,15.1l0,3.5
	c-0.3,2.5-0.5,5-1,7.5c-1.1,2.2-2.4,4.1-4,6c-2.3,1.2-4.1,1.5-6.7,1.7c-0.5,0-0.3,0-0.8,0.1c-1.4,0-2.6-0.2-3.9-0.5
	c-1.4-0.8-9.1-2.4-10.8-2.1L26.9,195.7z"/>
<path class="st0" d="M47.3,163.9c2.3-0.2,4.7-0.2,7-0.1c0,5,0.1,10,0,15.1c-2.2,0.4-4.6,0.6-6.8,0.6
	C46.7,176.4,47.2,167.5,47.3,163.9z"/>
<path class="st2" d="M47.5,179.5c2.2,0,4.6-0.2,6.8-0.6l0,3.5c-0.3,2.5-0.5,5-1,7.5c-1.1,2.2-2.4,4.1-4,6c-2.3,1.2-4.1,1.5-6.7,1.7
	c-0.5,0-0.3,0-0.8,0.1c-1.4,0-2.6-0.2-3.9-0.5c2.2-1.6,4.4-2.4,6.3-4.4C47.7,189.2,47.6,184.2,47.5,179.5z"/>
<path class="st2" d="M29.7,162c0.9,0,1.8,0.1,2.7,0.5c2.3,1.1,3.9,3.5,4.7,5.9c0.8,2.5,1,5.5-0.3,7.9c-0.8,1.6-2.2,2.7-3.9,3.3
	c-1.3-0.1-2.5-0.3-3.7-1c-2.3-1.5-3.8-4.1-4.4-6.7c-0.6-2.4-0.5-5.3,0.9-7.4C26.7,163,27.9,162.4,29.7,162z"/>
<path class="st3" d="M26.9,195.7l0.2-0.6c1.6-0.3,9.4,1.3,10.8,2.1c1.3,0.3,2.5,0.4,3.9,0.5c-0.5,41.2,0,82.4-0.1,123.6l0,22.8
	c0,2.4,0.5,7.5-0.1,9.5c-0.5,0.2-0.8,0.3-1.3,0.3c-1.2,0.1-1.7,0.4-2.7,1.2c-3.7-1.6-8.2-2.5-11.6-4.6c0.6-0.8,0.6-1.9,0.6-2.8
	c0.2-5.2,0-10.4,0-15.6l0-30C26.8,266.7,26.5,231.2,26.9,195.7z"/>
<path class="st1" d="M54.3,369.6c3.6,0.3,12.1,4.2,15.8,5.7l27.2,10.6l80.7,31.2c21,8,41.9,16.1,62.8,24.3
	c7.4,2.8,14.9,5.7,22.3,8.6c3.4,1.4,7,2.6,10.3,4.3c-3.5,3.3-5,6.3-5.1,11.1c-0.1,4.4,0.7,10-0.2,14.2c-11.5-4-22.7-8.9-34-13.4
	c-20.7-8.1-41.3-16.4-61.9-24.9l-81.4-32.9c-10.5-4.2-21.1-8.3-31.6-12.7c-1.2-1.3-3.7-2.4-5.3-2.9c-2.1-0.3-4.2-1.1-6.3-1.8
	c-0.3-0.7-0.2-1.9-0.2-2.7l0-14.4c0.1,0.4,0.1,1.2,0.4,1.4c1.5,1.1,4.7-0.2,6.4-0.5L54.3,369.6z"/>
<path class="st0" d="M47.5,374c0.1,0.4,0.1,1.2,0.4,1.4c1.5,1.1,4.7-0.2,6.4-0.5c0.1,4.9,0.5,13.5-0.4,17.9
	c-2.1-0.3-4.2-1.1-6.3-1.8c-0.3-0.7-0.2-1.9-0.2-2.7L47.5,374z"/>
<path class="st4" d="M181.6,137.1c5.8,1.6,11.6,2.8,17.5,3.9c2.3,0.5,4.9,1.2,7.3,1.2c3.4,0,9.8-1.5,13.4-2.1
	c2.7-0.4,6.9-0.6,9.4-1.9c7.2,0.5,14.7,2.3,21.8,3.7l34.6,6.7L406.9,172l24.2,4.7c4,0.8,13.8,3.4,17.2,3.2c-1.1,2.5-2.2,5-2.9,7.7
	c4.5,0.7,8.9,1.9,13.4,2.7c1.1,0.2,3.2,0.2,4.2,0.7c0.4,0.2,0.4,0.2,0.7,0.5l-76.6,15.3l-33.5,6.5c-5.9,1.2-11.9,2.1-17.7,3.6
	c-1.5-3-4.1-6.3-7.4-7.3c-0.8-0.3-1.6-0.4-2.4-0.6c-1.3,0.2-2.5,0.7-3.8,1.1c-5.2,1.5-9.7,2.8-13,7.4c-10.4,14.2,5.1,41.9-14.6,46.1
	c-0.4,0.1-0.2,0-0.7,0.3c-4.1-0.5-8.5-1.8-12.4-3c-2.7-0.7-5-1.6-7.1-3.5c-3.6-3.2-5.8-8.3-6-13c-7.6-1.5-15.2-3.7-22.7-5.6
	l-43.1-10.8L93.9,200.3c-13.5-3.5-27.2-6.7-40.7-10.4c0.6-2.5,0.7-5,1-7.5l0-3.5c0-5,0-10,0-15.1l0.1-0.2c3.7-1.7,8.7-1.9,12.8-2.8
	c-0.6-2.3-1.4-4.5-2.2-6.7c7.8-1.6,15.8-2.4,23.6-3.6c22.1-3.3,44.2-6.4,66.4-9.3C163.8,139.9,172.8,138.9,181.6,137.1z"/>
<path class="st3" d="M206.5,156.6c3.9,0.5,13,1.9,16.3,3.3c-0.3,0.2-0.5,0.4-0.8,0.6c-2,0.9-8.3,1.5-10.8,1.9
	c-13.9,2.3-27.8,4.2-41.8,6.3l-13.5,2.1c-2.8,0.4-5.8,1.2-8.6,1.2c-4.9,0-10.9-2.1-15.4-3.8c6.6-1.8,13.1-2.2,19.8-3.3l39-5.8
	C192.9,158.7,205.4,157.2,206.5,156.6z"/>
<path class="st3" d="M254.3,166.1c5.9,0.9,11.6,2,17.3,3.6c-1.9,0.1-4,0.9-5.9,1.2c-4,0.7-7.9,1.4-11.9,2l-45.8,6.9
	c-3.9,0.6-11.2,2.3-14.6,2.3c-4.2,0-13.3-2.6-17.6-3.7c5-0.5,10.1-1.6,15.1-2.4l25.8-3.9l29.4-4.3c1.6-0.2,6.5-0.6,7.6-1.1
	C253.9,166.5,254.1,166.3,254.3,166.1z"/>
<path class="st3" d="M303.2,176c4.8,0.4,12.3,2.3,17,3.6c-0.4,0.1-0.8,0.3-1.2,0.4c-3.9,1.3-8.9,1.5-13,2.1l-23.9,3.9l-27.8,4.5
	c-4.3,0.7-9.2,2.1-13.6,2.1c-5-0.1-13-2.4-18-3.8c7-0.2,14-2.3,20.9-3.3c8.6-1.3,17.2-2.8,25.8-4.1c10.8-1.6,21.7-3.1,32.5-4.9
	C302.5,176.4,302.8,176.3,303.2,176z"/>
<path class="st3" d="M351.5,185.9c4.8,0.7,12.6,2.1,17.1,3.6c-4,1.8-12.2,2.6-16.8,3.5c-13.7,2.5-27.5,4.9-41.3,7.2
	c-4.5,0.8-9,1.7-13.5,2.5c-2.6,0.5-5.3,1.1-7.9,1.2c-5,0.1-13.4-3.1-18.5-4.4c1.8,0,3.6,0.1,5.4-0.1c5.7-0.8,11.5-2.2,17.2-3.2
	c9.3-1.7,18.7-3.1,28.1-4.7l20.1-3.3c3.2-0.5,6.8-0.8,10-1.8L351.5,185.9z"/>
<path class="st0" d="M200.3,155.7c-2.7,0.2-5.5,0.7-8.2,1.1l-12.9,1.9l-36.1,5.4l-10.3,1.6c-2.3,0.4-4.8,1-7,1
	c-3.8-0.1-13.4-2.2-16.9-3.5c-0.9-0.3-1.5-0.6-1.9-1.5l0.3-0.6c1.5-1.1,3.3-1.4,5.1-1.8c5.7-1.2,11.5-1.8,17.3-2.7l31.3-4.7
	l23.8-3.6c5.1-0.8,10.2-1.8,15.4-2.1C200.1,149.4,200.3,152.6,200.3,155.7z"/>
<path class="st1" d="M200.2,146.2c7,0.1,14.5,2.2,21.4,3.6l35.1,7.1c30.9,6,61.8,12.2,92.6,18.6c12.7,2.5,25.4,5.1,38,7.7
	c3.9,0.8,7.8,1.4,11.7,2.3c1.7,0.4,7.4,1.5,8.4,2.6c0.2,0.2,0.2,0.3,0.3,0.5c-0.5,0.9-1.5,1.2-2.5,1.5c-2.3,0.7-4.9,1-7.3,1.5
	c-3,0.6-6.1,1.3-9.1,1.4c-2.8,0-5.8-0.8-8.6-1.4c-3.8-0.8-7.6-1.6-11.4-2.1c-4.5-1.5-12.3-2.9-17.1-3.6c-10.5-1.9-20.8-4.3-31.3-6.2
	c-4.8-1.3-12.2-3.2-17-3.6c-2.6-0.7-5.4-1.1-8.1-1.6c-7.8-1.6-15.7-3.1-23.5-4.7c-5.7-1.5-11.4-2.7-17.3-3.6
	c-6.3-1.4-12.7-2.8-19.1-4c-4.1-0.8-8.2-1.7-12.4-2.2c-3.3-1.4-12.4-2.8-16.3-3.3c-2.1-0.5-4.1-0.8-6.2-0.8
	C200.3,152.6,200.1,149.4,200.2,146.2z"/>
<path class="st1" d="M54.3,163.6c0.3,0.7,0.2,0.7,0.9,1c3.5,1.4,7.4,2.2,11.1,3.2c8.1,2.1,16.3,3.8,24.5,5.8l100.8,24.2
	c17.8,4.1,35.7,8.4,53.4,12.7c7,1.7,14.2,3.1,21.1,5.1c1.1,0.3,2,0.6,2.9,1.3c1.5-3,3-5.8,5.8-7.8c2.8-1.9,13.4-4.3,16.8-4.5
	c1.6-0.1,3,0.7,4.6,0.6c3.2-0.3,6-1.8,9.4-1.4c6.9,0.9,13.4,3.7,20.2,4.9l0.2,0c-1.3,0.2-2.5,0.7-3.8,1.1c-5.2,1.5-9.7,2.8-13,7.4
	c-10.4,14.2,5.1,41.9-14.6,46.1c-0.4,0.1-0.2,0-0.7,0.3c-4.1-0.5-8.5-1.8-12.4-3c-2.7-0.7-5-1.6-7.1-3.5c-3.6-3.2-5.8-8.3-6-13
	c-7.6-1.5-15.2-3.7-22.7-5.6l-43.1-10.8L93.9,200.3c-13.5-3.5-27.2-6.7-40.7-10.4c0.6-2.5,0.7-5,1-7.5l0-3.5c0-5,0-10,0-15.1
	L54.3,163.6z"/>
<path class="st2" d="M286.5,225c1.2-0.1,2.4,0,3.5,0.4c2.6,0.9,4.5,3.1,5.6,5.5c1.2,2.6,1.8,5.9,0.7,8.6c-0.8,2.2-2.4,3.4-4.5,4.3
	c-1.2,0.2-2.2,0.2-3.3-0.2c-2.6-0.9-4.5-3.1-5.7-5.5c-1.3-2.7-1.8-6.1-0.7-9C283,227,284.4,225.9,286.5,225z"/>
<path class="st3" d="M54.3,163.6c0.3,0.7,0.2,0.7,0.9,1c3.5,1.4,7.4,2.2,11.1,3.2c8.1,2.1,16.3,3.8,24.5,5.8l100.8,24.2
	c17.8,4.1,35.7,8.4,53.4,12.7c7,1.7,14.2,3.1,21.1,5.1c1.1,0.3,2,0.6,2.9,1.3c-1.4,4.4-0.6,13.2-0.7,18.1
	c-7.7-2.3-15.7-3.9-23.5-5.9l-71.6-17.7l-72.9-18.2c-14.3-3.6-28.6-7.5-43.1-10.7c-1.1-0.2-2-0.3-3.1-0.1l0-3.5c0-5,0-10,0-15.1
	L54.3,163.6z"/>
<path class="st3" d="M53.2,190c13.5,3.7,27.1,6.9,40.7,10.4l108.8,27.5l43.1,10.8c7.5,1.9,15.1,4.1,22.7,5.6c0.2,4.8,2.4,9.8,6,13
	c2.1,1.9,4.4,2.8,7.1,3.5c-0.2,4.7-0.1,9.4-0.1,14v24.6l0,74.9l0,53.9l0,16c0,2.8-0.2,5.7,0,8.5c-2.8-0.6-5.5,0.3-8,1.7
	c-3.3-1.7-6.9-2.9-10.3-4.3c-7.4-2.9-14.8-5.8-22.3-8.6c-20.9-8.2-41.8-16.3-62.8-24.3l-80.7-31.2l-27.2-10.6
	c-3.7-1.5-12.1-5.4-15.8-5.7c-0.5-4.5-2.2-8.1-4.9-11.6c-3-2.3-5.2-3.7-9-4c0.5,0,0.8-0.1,1.3-0.3c0.6-2,0.1-7.2,0.1-9.5l0-22.8
	c0-41.2-0.4-82.4,0.1-123.6c0.5-0.1,0.3-0.1,0.8-0.1c2.6-0.2,4.4-0.5,6.7-1.7C50.8,194.1,52.1,192.2,53.2,190z"/>
<path class="st5" d="M84,238.8c1.4,0,2.8,0.3,4.1,0.9c3.1,1.5,5.2,4.5,6.2,7.7c1,3,1.1,6.5-0.5,9.4c-1.2,2.2-3.1,3.4-5.5,4
	c-1.6,0.1-2.8-0.1-4.2-0.8c-3.1-1.5-5.3-4.5-6.3-7.7c-0.9-2.9-1.1-6.6,0.4-9.4C79.6,240.5,81.5,239.5,84,238.8z"/>
<path class="st5" d="M79.8,268.1c2.9,0,10.6,2.1,12.8,3.8c1.3,1,1.4,2.4,1.6,3.9c0.5,3.8,0.2,7.9,0.2,11.8l0,19.4l0,15.5
	c0,3.1,0.3,6.4-0.2,9.5c-0.2,1.5-0.6,2.3-1.5,3.5c-0.3,0.1-0.6,0.2-0.9,0.2c-2.6,0.1-10.9-2.6-12.8-4.4c-1.1-1-1-3.4-1.1-4.8
	c-0.4-12.2,0-24.6,0-36.9l0-11.9c0-2.2-0.2-4.6,0.1-6.7C78.3,269.9,78.9,269,79.8,268.1z"/>
<path class="st0" d="M41.8,197.7c0.5-0.1,0.3-0.1,0.8-0.1c2.6-0.2,4.4-0.5,6.7-1.7c0.8,3.3,0.2,162,0.2,162c-3-2.3-5.2-3.7-9-4
	c0.5,0,0.8-0.1,1.3-0.3c0.6-2,0.1-7.2,0.1-9.5l0-22.8C41.8,280.2,41.3,238.9,41.8,197.7z"/>
<path class="st5" d="M163.6,261.7c3,0,12.4,2,14.6,4.2c1,1,1.1,2.2,1.3,3.6c0.3,2.5,0.1,5.2,0.1,7.7l0,12.8
	c0,16.4-0.3,32.8-0.1,49.2c0.1,4.3,0.7,7.8,5.2,9.3c1,0.4,2.2,0.6,3,1.5c2.1,2.2,1.4,9.4,1.3,12.4c-0.8,0.9-1.6,1.6-2.6,2.3
	c-1.1,0.5-2,0.8-3.2,0.7c-1.4-0.1-2.9-0.6-4.3-1c-4.4-1.2-8.5-2.6-11.7-6.1c-2.4-2.8-4.1-6.1-4.7-9.8c-1-5.7-0.8-11.6-0.8-17.3l0-21
	l0-29c0-5.8-0.2-11.7,0.2-17.5C162.4,263,163,262.4,163.6,261.7z"/>
<path class="st5" d="M212.1,303.6c3.2-0.4,6.6,0.2,9.7,1c9.2,2.5,16.7,9.3,21.3,17.5c3.9,7,5.8,14.8,6.1,22.8c0.1,2,0.2,4-0.4,5.9
	c-0.6,2-1.6,2.7-3.4,3.7c-3.5-0.8-7.1-1.9-10.6-2.9c-8.5-2.4-17-5.1-25.5-7.4c1.1,5.5,2.9,9.9,7.2,13.6c5.4,4.6,11.5,5.3,18.4,4.7
	c1.5-0.1,4.6-1.4,5.9-0.5c1.9,1.3,4,7.4,4.5,9.8c0.3,1.4,0.5,3.5-0.4,4.8c-1.5,2.1-5.1,2.9-7.5,3.2c-10.3,1.4-21.3-2.1-29.4-8.3
	c-9.3-7.1-14.7-18.6-16.2-30c-1.3-9.9,0-22.1,6.4-30.2C201.7,306.6,206.4,304.3,212.1,303.6z"/>
<path class="st6" d="M216.4,320.5c2.8-0.3,5.1,0.1,7.4,1.7c4.8,3.3,5.7,8.9,6.7,14.3l-5.8-1.7c-5.2-1.5-10.4-3.1-15.6-4.5
	c0.3-1.1,0.6-2.1,1-3.2C211.4,323.9,213.3,321.9,216.4,320.5z"/>
<path class="st5" d="M137.1,254.9c2.8,0.4,10.6,2.4,12.8,4c1.1,0.8,1.5,1.6,1.7,2.9c0.5,3.6,0.3,7.5,0.3,11.1l0,20.4l0,38.3
	c0,5.7,0.2,11.5,0,17.3c0,1.2-0.1,3.3-0.9,4.2c-0.3,0.3-1,0.5-1.4,0.5c-2.1,0.1-10-2.1-11.5-3.5c-2-1.9-1.8-6-2-8.6
	c-1.4,1.4-2.9,2.6-4.7,3.5c-3.9,2-7.7,1.7-11.6,0.5c-3.5-1.5-6.4-3.5-8.9-6.4c-8.2-9.4-10.8-24-10-36.2c0.5-7.6,2.4-16.8,8.5-22
	c3-2.6,6.9-3.8,10.9-3.4c6,0.5,10.8,4.3,14.5,8.7c-0.2-5.5-0.1-11-0.1-16.5c0-3.7-0.3-7.5,0.1-11.1
	C134.8,256.7,135.7,256.1,137.1,254.9z"/>
<path class="st7" d="M121.1,296.3c2.1,0,3.7,0.1,5.5,1.3c2.5,1.6,4.1,4.6,4.7,7.4c0.7,3.3,0.7,15.7,0.1,19.1
	c-0.2,1.3-0.6,2.7-1.4,3.8c-1,1.5-2.4,2.4-4.2,2.8c-0.7-0.1-1.5-0.1-2.2-0.4c-2.9-1-5-3.6-6.2-6.2c-2.8-6-3.3-16.6-0.9-22.7
	C117.5,299,118.8,297.3,121.1,296.3z"/>
<path class="st0" d="M489,173.9c2.9,0.3,5.5,1.6,7.4,3.9c1.6,1.9,2.5,4.2,3,6.5c0.8,3.7,0.7,22.3,0.2,26.5c-0.5,4.5-2.5,9.1-6.1,12
	c-2.5,2-5.5,3-8.6,3.3l0,116.8l0,36.4c0,7.3-0.3,14.7,0.2,21.9c1.3-0.1,2.5,0.2,3.7,0.5c3.2,0.4,5.8,1.8,7.8,4.4
	c1.4,1.8,2.3,3.9,2.8,6.1c0.8,3.8,0.7,21.8,0.1,26.1c-0.7,4.6-3,9.3-6.8,12.1c-3.9,2.9-12.1,5.9-17,5.1c-0.3-0.1-0.6-0.1-0.9-0.2
	c-4.9-0.9-19.4-4.9-22.5-8.5c-10.4,2.8-20.7,6.4-31,9.6l-47.5,14.9l-26.1,7.9c-3.5,1.1-7.6,1.9-10.8,3.6c-0.9,1.6-0.3,4.8-0.4,6.7
	c-0.1,5.8-3.8,12.5-8.7,15.6c-2.7,1.7-6,2.7-9,3.7c-1.7,0.5-3.5,1.1-5.3,1.3c-3.1,0.7-6.3,1.3-9.5,1.2c-5.8-0.1-20.7-5-26-7.9
	c-1.7-0.9-3.2-2.1-4.5-3.5c-5.4-5.7-5.5-12.7-5.4-20.1c0.9-4.2,0.1-9.8,0.2-14.2c0.1-4.8,1.6-7.9,5.1-11.1c2.5-1.4,5.2-2.3,8-1.7
	c-0.2-2.8,0-5.7,0-8.5l0-16l0-53.9l0-74.9v-24.6c0-4.7-0.1-9.4,0.1-14c3.9,1.1,8.3,2.5,12.4,3c0.4-0.2,0.3-0.2,0.7-0.3
	c19.7-4.1,4.2-31.8,14.6-46.1c3.3-4.5,7.8-5.9,13-7.4c1.3-0.4,2.5-0.9,3.8-1.1c0.8,0.2,1.6,0.4,2.4,0.6c3.3,1.1,5.9,4.3,7.4,7.3
	c5.8-1.5,11.8-2.5,17.7-3.6l33.5-6.5l76.6-15.3c1.4,0.2,2.8,0.4,4.3,0.7c0.4-1.4,0.8-2.7,1.3-4c2-4.9,5.3-9.5,10.5-11.2
	c2.9-1,5.9-1.5,8.8-2.8L489,173.9z"/>
<path class="st1" d="M485.1,401.3c1.3-0.1,2.5,0.2,3.7,0.5c-2.9,2-7,2.6-10.4,3.5c-0.6-0.6-1.3-1.2-2-1.8
	C478.6,401.9,482.9,403.2,485.1,401.3z"/>
<path class="st1" d="M467.6,441.7c0.7,7.1,7.2,12.2,7.5,13.5l-0.3,0.2c-4.9-0.9-19.4-4.9-22.5-8.5
	C457.3,444.8,462.6,443.6,467.6,441.7z"/>
<path class="st2" d="M483.9,420.2c0.7,0,1.3,0,2,0.2c1.5,0.4,2.7,1.4,3.4,2.8c1.1,2.4,0.8,5.5,0,7.9c-1.1,3.1-3.1,5.7-6.2,7.2
	c-0.9,0-1.8-0.1-2.7-0.4c-1.5-0.6-2.5-1.7-3.1-3.2c-1-2.6-0.6-5.7,0.5-8.2C479,423.4,480.9,421.5,483.9,420.2z"/>
<path class="st2" d="M483.4,191c0.7-0.1,1.3-0.1,2,0c1.6,0.4,2.9,1.2,3.7,2.7c1.4,2.5,1.3,5.8,0.5,8.4c-1,3.2-2.9,5.6-5.9,7.1
	c-0.8,0.1-1.6,0.2-2.4,0c-1.6-0.5-2.9-1.5-3.6-3c-1.3-2.7-1.1-6.3-0.1-9C478.7,194.1,480.5,192.3,483.4,191z"/>
<path class="st2" d="M319.8,472.5c1.1-0.1,2.2-0.2,3.3,0.2c1.6,0.7,2.8,1.9,3.4,3.6c1,2.9,0.4,6.2-0.9,8.9c-1.4,2.8-3.4,4.7-6.3,5.8
	c-0.9,0.2-1.8,0.2-2.7,0c-1.5-0.5-2.6-1.3-3.3-2.7c-1.3-2.6-1.1-5.8-0.2-8.4C314.2,476.3,316.5,474.1,319.8,472.5z"/>
<path class="st2" d="M319.8,226.3c1.3-0.2,2.4-0.2,3.6,0.3c1.6,0.7,2.7,1.9,3.3,3.5c1,2.8,0.7,6.1-0.5,8.7c-1.3,2.9-3.4,5.3-6.4,6.5
	c-1.1,0.2-2,0.2-3.1-0.1c-1.7-0.6-2.9-1.7-3.6-3.3c-1.2-2.8-0.9-6.5,0.3-9.3C314.7,229.5,316.8,227.5,319.8,226.3z"/>
<path class="st1" d="M341.5,360.7l0,27.8c-4.2,1-8.5,2.2-12.7,3.4c-2.2,0.6-4.4,1.3-6.6,1.6l0-28.1
	C326.7,364.3,337.6,360.8,341.5,360.7z"/>
<path class="st1" d="M322.2,289.6c4.6-1.2,15.2-4.4,19.3-4.2c0,9.4,0.2,18.9,0,28.3c-6.5,0.9-12.7,3.5-19.3,4.4
	c-0.4-2.7,0-5.8,0-8.6L322.2,289.6z"/>
<path class="st3" d="M336.5,244.9c1.7-0.3,3.3-0.6,5-1c0,13.8-0.4,27.7,0,41.5c-4-0.2-14.6,3.1-19.3,4.2l0-26.7
	c2.7-0.4,5.1-1.3,7.2-3.1C334.2,256,335.9,250.7,336.5,244.9z"/>
<path class="st3" d="M322.2,318.1c6.6-0.9,12.8-3.5,19.3-4.4l0,47c-3.9,0.1-14.8,3.6-19.3,4.7L322.2,318.1z"/>
<path class="st3" d="M322.2,393.5c2.2-0.2,4.5-1,6.6-1.6c4.2-1.2,8.4-2.4,12.7-3.4l0,43.6c0,6.6-0.6,15.3,0.3,21.6
	c-3.6,1-7.3,1.9-10.8,3.4c-2.6-2.8-5.2-3.4-8.8-3.7C322.5,433.4,322.2,413.4,322.2,393.5z"/>
<path class="st1" d="M273.4,454.3c2.5-1.4,5.2-2.3,8-1.7c1.3,0.9,3.4,1.2,4.9,1.7c5.8,1.9,12.2,4.8,18.4,3.9
	c0.2-0.2,0.3-0.3,0.4-0.6l0.3,0.6c2.2,0.8,6.8,0.5,9.3,0.5c-5,4.1-8.7,9.1-9.3,15.7c-0.5,4.5-0.7,22.9,0.2,27
	c0.3,1.4,0.9,2.5,1.8,3.6c1.7,2.1,4.4,3,6.1,5c-3.1,0.7-6.3,1.3-9.5,1.2c-5.8-0.1-20.7-5-26-7.9c-1.7-0.9-3.2-2.1-4.5-3.5
	c-5.4-5.7-5.5-12.7-5.4-20.1c0.9-4.2,0.1-9.8,0.2-14.2C268.5,460.7,270,457.6,273.4,454.3z"/>
<path class="st2" d="M286.1,471.5c1,0,1.9,0,2.9,0.3c2.8,0.9,5,3.2,6.3,5.8c1.3,2.5,2,5.7,1,8.4c-0.8,2.1-2.1,3.2-4.1,4.2
	c-1.1,0.1-2.3,0.1-3.3-0.3c-2.8-0.9-4.9-3.5-6.1-6c-1.2-2.5-1.9-5.7-0.8-8.3C282.7,473.4,284.1,472.4,286.1,471.5z"/>
<path class="st3" d="M281.5,260.7c3.9,1.1,8.3,2.5,12.4,3c3.7,1.1,7.4,2.1,11.3,2.3l-0.1,191.6c-0.1,0.3-0.2,0.4-0.4,0.6
	c-6.2,0.9-12.6-2-18.4-3.9c-1.5-0.5-3.6-0.8-4.9-1.7c-0.2-2.8,0-5.7,0-8.5l0-16l0-53.9l0-74.9v-24.6
	C281.5,270.1,281.3,265.4,281.5,260.7z"/>
<path class="st0" d="M289.9,262.8c-1.5-0.6-3-0.7-4.5-1c-1-0.2-2.1-0.6-3-1.2c-0.4,50.7,0,101.5,0,152.3l0,29.6
	c0,2.7,0.4,8.1,0.1,11.2c2.4,1.2,4.9,1.8,7.6,1.9c0.1-26.3,0.4-151.7,0-192.8C290,262.8,289.9,262.8,289.9,262.8z"/>
<path class="st2" d="M336.9,235.4c8-2.2,16.3-3.5,24.4-5.2l44.5-9.2l37.6-7.7c8.2-1.7,16.4-3.7,24.8-4.9c0.3,5.4,0.5,10.8,4.9,14.7
	c1.2,1.1,3,1.6,4,2.8c0.5,0.6,0.6,1.1,0.5,1.8l-0.5,0.4c-2.5,0.6-4.8-0.2-7-1.2c-0.8,0.7-1,0.9-1,1.9c-0.3,4.1,0,8.4,0,12.5
	l-0.1,26.1l0,85.9l0,37.2c0,4.2-0.4,11.6,0.4,15.3c2.4-0.9,4.2-2.4,6.9-2.2c0.7,0.6,1.4,1.1,2,1.8c0,0.1-0.1,0.1-0.1,0.2
	c-1.1,1.5-2.7,2.4-4,3.6c-4.6,4-5.9,9-6,14.9l-88.1,27.2c-10.2,3.2-20.4,6.4-30.7,9.4c-4.5,1.4-8.9,2.9-13.5,4.1
	c-1-3.3-2.5-5.4-4.9-7.8c3.4-1.5,7.2-2.4,10.8-3.4c-0.9-6.3-0.3-15-0.3-21.6l0-43.6l0-27.8l0-47c0.2-9.4,0-18.9,0-28.3
	c-0.4-13.8,0-27.7,0-41.5c-1.6,0.4-3.3,0.7-5,1C337,241.8,337,238.5,336.9,235.4z"/>
<path class="st3" d="M397.5,334.5c1.8,0,4.3-0.6,6-0.3c0.2,0.4,0.3,0.6,0.4,1c0.5,2.3,2.6,4.6,4.5,5.8c0.2,0.1,0.4,0.3,0.7,0.4
	c-1.5,1.9-8.6,3.2-11.2,3.8c0-1.5,0-2.9-0.3-4.3L397.5,334.5z"/>
<path class="st1" d="M397.5,340.9c0.3,1.4,0.2,2.9,0.3,4.3c2.6-0.6,9.7-1.9,11.2-3.8l1.9,0.5l1.6,0.2c0.3,0.5,0.1,24,0,26.6
	c-4.6,1.4-9.9,3.2-14.7,3.7c0,2,0.2,4.2-0.3,6.2c-0.2-4.5,0-9.1,0-13.6C397.5,357,397.5,348.9,397.5,340.9z"/>
<path class="st1" d="M388.9,348.1c0.2,5.9,0.1,11.9,0.1,17.8v37.3l0,22.3c0,3.5,0.3,7.2,0,10.7c-0.6-1.5-0.2-54.5-0.2-60.7
	c-5.2,0.9-10.2,2.9-15.4,4c-0.2-10-0.3-20.1,0-30.1c0.1,0.6,0.2,1.2,0.3,1.8c1.1,0.6,12.6-2.9,15-3.1
	C388.7,348.1,388.8,348.1,388.9,348.1z"/>
<path class="st1" d="M388.7,274.8c0-4.1-0.5-37.2,0.2-38.5l0,54.6c0.1,6.7,0.1,13.5,0,20.2c0,3.2,0.1,6.3-0.1,9.5
	c-0.5-5.9-0.1-12.1,0-18.1c-5.1,0.6-10.2,2.3-15.3,3.1c0,3.3,0.1,6.7-0.2,10c-0.5-7.1,0.1-14.4,0.1-21.6c0-4.9,0-9.8,0-14.6
	c-0.1-5.2-0.3-10.5,0-15.7c0.6,4.3,0.2,9.3,0.2,13.7C377,276.5,385.4,274.6,388.7,274.8z"/>
<path class="st3" d="M397.5,232c5-0.9,10.1-1.9,15.1-3.2c-0.1,13.4-0.1,26.7,0,40.1c-4.9,0.1-9.8,2.4-14.7,2.7c0-2.9,0.3-6.2-0.3-9
	C397.2,252.4,397.6,242.2,397.5,232z"/>
<path class="st3" d="M373.1,237.1c4.9-1.6,10.5-2.1,15.6-3.3c0.4,0.5,0.2,1.8,0.2,2.5c-0.7,1.2-0.2,34.4-0.2,38.5
	c-3.3-0.1-11.8,1.7-15.2,2.7c0-4.4,0.4-9.4-0.2-13.7C373.3,254.9,373.8,245.8,373.1,237.1z"/>
<path class="st3" d="M373.4,305.6c5.1-0.8,10.2-2.5,15.3-3.1c-0.1,5.9-0.5,12.2,0,18.1l0,18c0,3.1,0.3,6.4,0,9.5c-0.1,0-0.2,0-0.3,0
	c-2.4,0.3-13.9,3.7-15,3.1c-0.1-0.6-0.2-1.2-0.3-1.8l0-33.8C373.5,312.3,373.4,308.9,373.4,305.6z"/>
<path class="st1" d="M397.5,262.6c0.6,2.8,0.3,6.1,0.3,9c5-0.3,9.9-2.5,14.7-2.7c0.1,5.9,0,11.8,0.1,17.7c0,2.8,0.5,7.3-0.1,10
	c-0.1,6.1-0.1,12.2,0.2,18.3c-2.8,0.4-5,1.3-6.7,3.7c-1.3,1.8-2.1,4.1-2.6,6.3c-2,0.2-3.9,0.5-5.9,0.7c0-2.7-0.1-5.5,0-8.2
	c-0.4-6.5,0-13.1,0-19.6C397.5,286,397.4,274.3,397.5,262.6z"/>
<path class="st3" d="M397.8,299.9c4.6-0.5,10.3-2,14.8-3.3c-0.1,6.1-0.1,12.2,0.2,18.3c-2.8,0.4-5,1.3-6.7,3.7
	c-1.3,1.8-2.1,4.1-2.6,6.3c-2,0.2-3.9,0.5-5.9,0.7c0-2.7-0.1-5.5,0-8.2C398.3,314.1,397.8,304,397.8,299.9z"/>
<path class="st3" d="M397.8,372.4c4.8-0.5,10-2.3,14.7-3.7l0,42.9c0,4.2-0.6,17.1,0.3,20.4c-5.1,1.4-10.3,2.8-15.3,4.6
	c0.2-19.3-0.1-38.7,0-58C398,376.7,397.8,374.4,397.8,372.4z"/>
<path class="st3" d="M373.3,379.5c5.2-1.1,10.2-3.1,15.4-4c0,6.2-0.4,59.2,0.2,60.7l0.1,3.2c-5.1,1.4-10.2,3-15.3,4.5
	c-0.1-0.1-0.3-0.2-0.3-0.4C372.9,442.4,373.3,386,373.3,379.5z"/>
<path class="st0" d="M365.2,238.7c2.6-0.7,5.3-1.1,7.9-1.6c0.6,8.7,0.2,17.8,0.1,26.6c-0.3,5.2-0.1,10.5,0,15.7
	c0.1,4.9,0,9.8,0,14.6c0,7.1-0.6,14.5-0.1,21.6l0,33.8c-0.3,10-0.2,20.1,0,30.1c0,6.5-0.4,62.9,0.1,64c0.1,0.2,0.2,0.3,0.3,0.4
	c-2.6,1.1-5.5,1.8-8.2,2.4c-0.8-3.5-0.2-15.1-0.2-19.5l0-45c0.2-9.2,0-18.5,0-27.7l0-46.4c0-9.5,0-18.9,0-28.4L365.2,238.7z"/>
<path class="st0" d="M435.8,223.9c-0.3,13.1-0.1,26.3,0,39.4c0,9.2,0.4,18.7,0,27.8c-5,1.1-10,2.7-15,3.6c-0.1,0.9-0.1,1.8-0.2,2.7
	c0,3.3,0.4,20.1-0.1,21.9c-2.6-2.2-4.1-3.8-7.6-4.4c-0.2-6.1-0.3-12.2-0.2-18.3c0.6-2.6,0.1-7.1,0.1-10c-0.1-5.9,0-11.8-0.1-17.7
	c-0.1-13.4-0.1-26.7,0-40.1c2.5-0.8,5.3-1.1,7.9-1.7C425.5,226.1,430.9,225.4,435.8,223.9z"/>
<path class="st1" d="M420.5,264.1l0.3,2.2c0.6,0.4,12.9-2.7,14.7-3l0.2,0c0,9.2,0.4,18.7,0,27.8c-5,1.1-10,2.7-15,3.6
	c-0.1,0.9-0.1,1.8-0.2,2.7c-0.3-4.1,0-8.5,0-12.6C420.6,277.9,420.4,271,420.5,264.1z"/>
<path class="st3" d="M435.8,223.9c-0.3,13.1-0.1,26.3,0,39.4l-0.2,0c-1.8,0.3-14.2,3.4-14.7,3l-0.3-2.2c0-12.3,0.3-24.7-0.1-37
	C425.5,226.1,430.9,225.4,435.8,223.9z"/>
<path class="st0" d="M420.7,338.6c5.1-0.6,10-2.8,15.1-3.2c0,9,0.3,18.1,0.1,27.1l-0.1,39.4c0,4.3-0.6,19.6,0.5,22.9
	c-5.1,1.5-10.7,2.8-15.7,4.8c-2.5,1-5.2,1.6-7.7,2.4c-0.9-3.2-0.3-16.2-0.3-20.4l0-42.9c0.2-2.6,0.3-26.2,0-26.6l-1.6-0.2
	c4.5-0.4,5.1-1.5,8.3-4.2C419.7,338.3,420,338.4,420.7,338.6z"/>
<path class="st1" d="M420.7,338.6c5.1-0.6,10-2.8,15.1-3.2c0,9,0.3,18.1,0.1,27.1c-5,1.2-9.9,2.7-14.9,4.1c-0.2,0.7-0.3,1.4-0.3,2.2
	c-0.2-5.5,0-11.1,0.1-16.6C420.6,347.7,420.4,343.1,420.7,338.6z"/>
<path class="st3" d="M420.5,368.8c0.1-0.8,0.1-1.5,0.3-2.2c5-1.4,9.9-2.8,14.9-4.1l-0.1,39.4c0,4.3-0.6,19.6,0.5,22.9
	c-5.1,1.5-10.7,2.8-15.7,4.8c0.3-6.3,0-12.7,0-19L420.5,368.8z"/>
<path class="st0" d="M349.5,242.1c5.2-1.2,10.5-2.3,15.7-3.4l0,40.7c-0.1,9.5-0.1,18.9,0,28.4l0,46.4c0,9.2,0.2,18.5,0,27.7l0,45
	c0,4.4-0.6,16,0.2,19.5c-5.3,1.4-10.7,3-15.9,4.8c-2.5,1-5.2,1.9-7.8,2.5c-0.9-6.3-0.3-15-0.3-21.6l0-43.6l0-27.8l0-47
	c0.2-9.4,0-18.9,0-28.3c-0.4-13.8,0-27.7,0-41.5C344,243,346.9,242.7,349.5,242.1z"/>
<path class="st1" d="M365.2,354.1c0,9.2,0.2,18.5,0,27.7c-5.2,1.2-10.3,3.2-15.5,4.2c0,0.9,0,1.9-0.2,2.8c-0.3-4.4,0-9,0-13.4
	c0-6.8-0.1-13.5,0-20.3c0.1,0.9,0.2,1.9,0.3,2.8C354.9,357,360,354.5,365.2,354.1z"/>
<path class="st1" d="M349.5,278.7c0.1,1.4,0.2,2.9,0.2,4.3c5.2-1,10.3-2.6,15.5-3.6c-0.1,9.5-0.1,18.9,0,28.4
	c-5.2,1.2-10.3,2.6-15.5,3.7c0,0.9-0.1,1.9-0.2,2.8c-0.3-5.1,0.1-10.3,0.1-15.4C349.6,292.2,349.2,285.4,349.5,278.7z"/>
<path class="st3" d="M349.5,242.1c5.2-1.2,10.5-2.3,15.7-3.4l0,40.7c-5.2,1-10.3,2.6-15.5,3.6c-0.1-1.4-0.1-2.9-0.2-4.3L349.5,242.1
	z"/>
<path class="st3" d="M349.7,311.5c5.2-1.1,10.3-2.5,15.5-3.7l0,46.4c-5.2,0.4-10.3,2.9-15.4,3.8c-0.1-0.9-0.1-1.9-0.3-2.8l0-40.8
	C349.7,313.4,349.7,312.4,349.7,311.5z"/>
<path class="st3" d="M349.7,386c5.2-1,10.4-2.9,15.5-4.2l0,45c0,4.4-0.6,16,0.2,19.5c-5.3,1.4-10.7,3-15.9,4.8
	c-0.1-20.8-0.2-41.6-0.1-62.4C349.7,387.9,349.7,386.9,349.7,386z"/>
<path class="st0" d="M459.8,218.8l2.8-0.7c1.8,3.7,3.6,7.1,7.5,8.7c-0.8,0.7-1,0.9-1,1.9c-0.3,4.1,0,8.4,0,12.5l-0.1,26.1l0,85.9
	l0,37.2c0,4.2-0.4,11.6,0.4,15.3c-3.8,3.2-5.5,6.5-7.4,11c-0.1,0.2-0.3,0.4-0.4,0.5c-0.7,0.5-15.5,4.5-17.9,5.4
	c-2.5,0.7-5,1.4-7.4,2.2c-1.1-3.2-0.5-18.6-0.5-22.9l0.1-39.4c0.2-9,0-18.1-0.1-27.1c-5.1,0.4-10,2.6-15.1,3.2
	c-0.7-0.2-1-0.3-1.4-0.9c0.5-0.7,0.8-1.5,1.2-2.3c2.2-5.3,2.1-10.9,0-16.1c0.6-1.8,0.1-18.6,0.1-21.9c0.1-0.9,0.1-1.8,0.2-2.7
	c5.1-0.9,10-2.5,15-3.6c0.4-9.1,0-18.6,0-27.8c-0.1-13.1-0.3-26.3,0-39.4c2.5-0.6,5-1,7.5-1.5C448.8,221.2,454.3,220.1,459.8,218.8z
	"/>
<path class="st1" d="M459.8,329.1c0.1,0.1,0.3,0.3,0.4,0.4c0.4,0.9,0.2,24,0.1,25.9c-0.3,0.4-0.1,0.3-0.4,0.4
	c-5.1,1.7-10.7,3.3-16,4.2c-0.1,1-0.1,2.1-0.2,3.1c-0.3-5.8,0-11.7,0.1-17.6c0-5.4-0.3-10.8-0.1-16.1c0.2,1.2,0.2,2.5,0.2,3.7
	C449.1,331.8,454.4,330.4,459.8,329.1z"/>
<path class="st1" d="M443.5,247.4c0.3,4.7,0.1,9.4,0.2,14.2c5.3-1.4,10.7-2.6,16.1-3.8c0.1,0.1,0.3,0.2,0.3,0.4
	c0.2,0.6,0.2,24.6,0,27.1c-1.6,0.4-15.9,3.8-16.2,4c-0.1,0.1-0.2,0.2-0.3,0.3l-0.2,1.9c-0.2-2.2,0-4.6,0-6.8l0-12.7
	C443.6,263.9,443.1,255.6,443.5,247.4z"/>
<path class="st3" d="M443.3,222.3c5.5-1.1,11-2.3,16.5-3.6c-0.3,2.3,0.2,5,0.3,7.3c0.1,3,0.4,30.4,0.1,31.3
	c-0.1,0.2-0.2,0.3-0.3,0.4c-5.4,1.2-10.8,2.4-16.1,3.8c-0.1-4.7,0.1-9.5-0.2-14.2l0-15.1C443.5,229.1,443.7,225.7,443.3,222.3z"/>
<path class="st3" d="M420.7,294.6c5.1-0.9,10-2.5,15-3.6l0,44.4c-5.1,0.4-10,2.6-15.1,3.2c-0.7-0.2-1-0.3-1.4-0.9
	c0.5-0.7,0.8-1.5,1.2-2.3c2.2-5.3,2.1-10.9,0-16.1c0.6-1.8,0.1-18.6,0.1-21.9C420.7,296.5,420.7,295.5,420.7,294.6z"/>
<path class="st3" d="M443.5,291.5l0.2-1.9c0.1-0.1,0.1-0.2,0.3-0.3c0.3-0.2,14.6-3.6,16.2-4c-0.5,5.9-0.1,12-0.1,18
	c0,6.8,0,13.6-0.1,20.3c0,0.8,0.3,4.6,0.1,5.1c-0.1,0.1-0.2,0.2-0.3,0.3c-5.3,1.4-10.7,2.7-16,4c0-1.2,0-2.5-0.2-3.7V291.5z"/>
<path class="st3" d="M459.8,355.8c0.8,1.2,0.4,9.7,0.4,11.9l0,45.2c0,1-0.3,3,0.9,3.4c0.4,0.1,0.7,0.2,1,0.5
	c-0.1,0.2-0.3,0.4-0.4,0.5c-0.7,0.5-15.5,4.5-17.9,5.4c-0.4-6.6-0.1-13.3-0.1-19.9l0-39.6c0.2-1,0.2-2.1,0.2-3.1
	C449.1,359.1,454.6,357.5,459.8,355.8z"/>
<path class="st8" d="M459.8,218.8l2.8-0.7c1.8,3.7,3.6,7.1,7.5,8.7c-0.8,0.7-1,0.9-1,1.9c-0.3,4.1,0,8.4,0,12.5l-0.1,26.1l0,85.9
	l0,37.2c0,4.2-0.4,11.6,0.4,15.3c-3.8,3.2-5.5,6.5-7.4,11c-0.3-0.3-0.6-0.4-1-0.5c-1.2-0.3-0.9-2.4-0.9-3.4l0-45.2
	c0-2.2,0.5-10.7-0.4-11.9c0.3-0.1,0.1,0,0.4-0.4c0.1-1.8,0.3-24.9-0.1-25.9c-0.1-0.2-0.2-0.3-0.4-0.4c0.1-0.1,0.3-0.2,0.3-0.3
	c0.2-0.5-0.1-4.3-0.1-5.1c0.1-6.8,0.1-13.6,0.1-20.3c-0.1-5.9-0.4-12,0.1-18c0.2-2.4,0.2-26.5,0-27.1c-0.1-0.2-0.2-0.3-0.3-0.4
	c0.1-0.1,0.2-0.2,0.3-0.4c0.3-0.9,0-28.2-0.1-31.3C460,223.8,459.4,221.1,459.8,218.8z"/>
</svg>
